<?xml version="1.0" encoding="UTF-8"?>
<svg id="Camada_1" data-name="Camada 1" xmlns="http://www.w3.org/2000/svg" viewBox="0 0 565.64 495.02">
  <defs>
    <style>
      .cls-1 {
        fill: #1e4e9e;
      }

      .cls-2 {
        fill: #55afe3;
      }

      .cls-3 {
        fill: none;
      }

      .cls-4 {
        fill: #070708;
      }

    </style>
  </defs>
  <path class="cls-1" d="M273.93,495.02c25.69,0,50.46-3.91,73.76-11.18H200.17c23.3,7.26,48.07,11.18,73.76,11.18Zm-106.18-23.88h212.36c6.36-3.02,12.56-6.31,18.61-9.85H149.15c6.04,3.54,12.25,6.83,18.61,9.85Zm-36.17-21.14H416.29c5.07-3.57,10.01-7.33,14.79-11.26H116.79c4.78,3.93,9.72,7.69,14.79,11.26Zm-26.07-21.14H442.36c4.38-4.07,8.61-8.3,12.69-12.67H92.82c4.08,4.38,8.31,8.6,12.69,12.67Zm-46.08-57.78c3.06,5.29,6.3,10.46,9.73,15.5H478.71c3.43-5.04,6.68-10.2,9.73-15.5H59.43Zm14.73,22.55H473.71c-3.54,4.83-7.25,9.53-11.12,14.08H85.28c-3.87-4.56-7.58-9.25-11.12-14.08Z"/>
  <path class="cls-2" d="M38.21,323.15H509.66c2.15-6.7,4.01-13.52,5.59-20.45H32.62c1.58,6.93,3.44,13.75,5.59,20.45ZM273.93,0C137.24,0,26.42,110.81,26.42,247.51c0,18.47,2.04,36.47,5.88,53.78h483.26c3.84-17.32,5.88-35.31,5.88-53.78,0-136.7-110.82-247.51-247.51-247.51ZM45.76,343.59H502.11c2.43-5.76,4.64-11.64,6.64-17.61H39.13c2,5.98,4.21,11.85,6.64,17.61Zm2.46,5.65H499.64c-2.49,5.51-5.17,10.91-8.04,16.2H56.27c-2.87-5.29-5.55-10.69-8.04-16.2Z"/>
  <rect class="cls-3" x="26.42" y="0" width="495.09" height="414.98"/>
  <path class="cls-5" d="M22.15,60.35c1.78-.26,3.78-.3,5.52-1.79,1.32-1.11,1.7-2.34,3.57-3.28,1.36-.68,1.53-.26,2.68-.89,2.04-1.15,1.66-2.64,3.57-4.05,1.74-1.28,2.63-.38,4.16-1.66,1.7-1.36,.98-2.68,2.42-4.13,2.38-2.43,6.93-1.62,8.33-1.41,2.29,.43,4.08,1.32,5.18,2.05,2.08-1.07,3.7-1.15,4.76-1.07,1.66,.13,2.72,.81,3.91,.21,.85-.43,1.32-1.24,1.61-1.96,1.7-3.92,.13-7.37,1.06-11.5,.09-.38,1.19-4.98,5.23-7.75,2.8-1.96,5.82-2.09,8.62-2.26,3.4-.17,6.16,.38,7.99,.89-.21,.3,3.02-5.24,4.97-7.63,4.8-5.75,14.91-8.05,22.47-5.67,3.23,1.02,5.99,2.9,10.45,6.01,2.42,1.66,4.08,3.15,4.93,3.96,1.23,1.15,1.95,1.96,1.95,1.96,5.14-.98,5.4-.98,5.4-.98,2.97-.26,7.22,.72,9.81,3.79,2.89,3.32,3.19,10.01,1.78,10.52-.47,.17-.93-1.75-2.25-1.79-.85-.04-1.74,.68-2,1.49-.55,1.79,1.91,3.88,2.42,4.3,2.17,1.83,3.53,1.45,6.37,2.68,5.48,2.34,7.82,6.94,9.64,6.01,.13-.04,.38-.38,.98-1.07,1.44-1.66,1.78-2.43,2.25-2.9,1.44-1.53,5.18-1.49,7.48,.09,2.68,1.79,1.4,4.26,4.5,7.03,1.87,1.66,2.55,.98,5.23,3.2,2.29,1.92,3.99,3.41,3.99,3.41,.64-.68,1.78-1.7,3.44-2.26,3.61-1.19,7.01,.81,7.9,1.36,2.46,1.45,2.25,2.56,4.93,4.18,1.7,1.07,3.02,1.36,5.74,2.09,2.29,.6,5.65,1.45,10.49,2.73-2.63,.13-6.59,.3-11.47,.51-8.84,.34-9.77,.26-15.04,.55-9.01,.47-13.6,1.07-16.23,1.45-4.93,.72-4.29,.98-6.25,1.07-7.48,.26-11.22-3.15-14.74-1.07-1.57,.94-.89,1.87-2.89,4.01-2.85,3.03-6.67,3.49-9.94,4.09-14.11,2.43-14.83,5.88-22.94,5.2-3.53-.3-4.25-1.02-6.71-1.87,0,0-1.32-.47-3.48-.94-4.21-.89-12.15,1.53-18.27,2.09-1.87,.17-8.37,.6-15.51-2.26-4.72-1.87-8.07-4.52-10.11-6.43,0,0-3.74,.04-6.54-.89-4.25-1.41-3.99-3.2-8.03-4.77-1.49-.55-5.95-2.47-10.71-1.36-1.95,.47-2.34,1.02-4.93,1.49-1.95,.34-3.44,.3-3.87,.3-2.51-.09-4.25-.68-5.4-1.02-2.42-.72-4.93-.68-9.94-.81-4.5-.09-8.16,.3-10.58,.68,5.44-2.64,9.39-3.58,12.07-3.92Z"/>
  <rect class="cls-3" x="9.64" y="6.07" width="214.47" height="74.69"/>
  <path class="cls-4" d="M362.69,97.32c1.79-.26,3.8-.3,5.55-1.79,1.32-1.11,1.71-2.34,3.59-3.28,1.37-.68,1.54-.26,2.69-.89,2.05-1.15,1.67-2.64,3.59-4.05,1.75-1.28,2.65-.38,4.18-1.66,1.71-1.36,.98-2.68,2.43-4.13,2.39-2.43,6.96-1.62,8.37-1.41,2.31,.43,4.1,1.32,5.21,2.05,2.09-1.07,3.71-1.15,4.78-1.07,1.66,.13,2.73,.81,3.93,.21,.85-.43,1.32-1.24,1.62-1.96,1.71-3.92,.13-7.37,1.07-11.5,.09-.38,1.2-4.98,5.25-7.75,2.82-1.96,5.85-2.09,8.67-2.26,3.42-.17,6.19,.38,8.03,.89-.21,.3,3.03-5.24,4.99-7.63,4.82-5.75,14.98-8.05,22.58-5.67,3.24,1.02,6.02,2.9,10.5,6.01,2.43,1.66,4.1,3.15,4.95,3.96,1.24,1.15,1.96,1.96,1.96,1.96,5.17-.98,5.42-.98,5.42-.98,2.99-.26,7.26,.72,9.86,3.79,2.9,3.32,3.2,10.01,1.79,10.52-.47,.17-.94-1.75-2.26-1.79-.85-.04-1.75,.68-2.01,1.49-.55,1.79,1.92,3.88,2.43,4.3,2.18,1.83,3.54,1.45,6.4,2.68,5.51,2.34,7.86,6.94,9.69,6.01,.13-.04,.38-.38,.98-1.07,1.45-1.66,1.79-2.43,2.26-2.9,1.45-1.53,5.21-1.49,7.51,.09,2.69,1.79,1.41,4.26,4.53,7.03,1.88,1.66,2.56,.98,5.25,3.2,2.31,1.92,4.01,3.41,4.01,3.41,.64-.68,1.79-1.7,3.46-2.26,3.63-1.19,7.04,.81,7.94,1.36,2.48,1.45,2.26,2.56,4.95,4.18,1.71,1.07,3.03,1.36,5.76,2.09,2.31,.6,5.68,1.45,10.54,2.73-2.65,.13-6.62,.3-11.53,.51-8.88,.34-9.82,.26-15.11,.55-9.05,.47-13.66,1.07-16.31,1.45-4.95,.72-4.31,.98-6.28,1.07-7.51,.26-11.27-3.15-14.81-1.07-1.58,.94-.9,1.87-2.9,4-2.86,3.03-6.7,3.49-9.99,4.09-14.17,2.43-14.9,5.88-23.05,5.2-3.54-.3-4.27-1.02-6.75-1.87,0,0-1.32-.47-3.5-.94-4.23-.89-12.21,1.53-18.36,2.09-1.88,.17-8.41,.6-15.58-2.26-4.74-1.87-8.11-4.52-10.16-6.43,0,0-3.76,.04-6.57-.89-4.27-1.41-4.01-3.2-8.07-4.77-1.49-.55-5.98-2.47-10.76-1.36-1.96,.47-2.35,1.02-4.95,1.49-1.96,.34-3.46,.3-3.88,.3-2.52-.09-4.27-.68-5.42-1.02-2.43-.72-4.95-.68-9.99-.81-4.53-.09-8.2,.3-10.63,.68,5.46-2.64,9.43-3.58,12.12-3.92Z"/>
  <rect class="cls-3" x="350.1" y="43.03" width="215.53" height="74.69"/>
  <polygon points="170.76 354.33 124.71 263.98 150.98 274.01 108.51 190.67 122.49 197.73 85.39 118.17 48.29 197.73 62.27 190.67 19.79 274.01 46.07 263.98 .02 354.33 75.5 327.97 75.5 387.62 95.28 387.62 95.28 327.97 170.76 354.33"/>
  <rect class="cls-3" y="117.92" width="170.72" height="269.95"/>
  <polygon points="538.48 354.33 492.43 263.98 518.7 274.01 476.24 190.67 490.21 197.73 453.11 118.17 416.02 197.73 429.99 190.67 387.52 274.01 413.79 263.98 367.74 354.33 443.22 327.97 443.22 387.62 463 387.62 463 327.97 538.48 354.33"/>
  <rect class="cls-3" x="367.72" y="117.92" width="170.72" height="269.95"/>
  <polygon points="260.86 103.84 255.93 101.5 258.84 99.49 257.72 97.92 253.94 100.55 251.82 99.54 257.54 95.56 256.41 94.01 249.83 98.59 248.52 97.97 251.42 95.95 250.31 94.4 246.54 97.02 240.55 94.17 246.09 90.85 250.42 93.14 251.35 91.47 248.02 89.71 249.31 88.95 256.29 92.65 257.22 90.96 251.24 87.8 253.14 86.66 257.47 88.95 258.38 87.28 255.07 85.51 259.88 82.66 258.88 81.02 254.19 83.82 254.05 80.31 252.12 80.38 252.3 84.95 250.28 86.15 250.03 79.26 248.1 79.33 248.38 87.28 247.15 88.02 247.02 84.51 245.09 84.58 245.25 89.13 239.47 92.56 239.47 85.12 243.53 82.9 242.59 81.25 239.47 82.94 239.47 81.51 246.54 77.67 245.59 75.99 239.47 79.34 239.47 77.02 243.53 74.8 242.59 73.14 239.47 74.83 239.47 69.44 237.54 69.44 237.54 74.97 234.31 73.09 233.32 74.73 237.54 77.18 237.54 79.38 231.71 75.96 230.71 77.62 237.54 81.6 237.54 83.08 234.31 81.19 233.32 82.83 237.54 85.3 237.54 92.74 231.32 89.78 231.07 85.21 229.14 85.32 229.33 88.83 228.03 88.19 227.58 80.26 225.65 80.37 226.04 87.24 223.92 86.25 223.67 81.69 221.73 81.79 221.93 85.28 216.99 82.94 216.15 84.67 221.21 87.06 218.09 89.11 219.16 90.71 223.24 88.03 225.24 88.98 219.59 92.69 220.66 94.27 227.26 89.95 228.62 90.59 225.49 92.65 226.54 94.24 230.64 91.56 236.49 94.36 230.78 97.73 226.78 95.47 225.81 97.11 228.89 98.87 227.65 99.61 220.66 95.65 219.69 97.29 225.76 100.72 223.74 101.94 219.73 99.67 218.76 101.32 221.84 103.05 217.16 105.84 218.16 107.49 222.97 104.62 223 108.32 224.93 108.3 224.9 103.47 226.79 102.35 226.85 109.03 228.78 109.01 228.73 101.2 230.01 100.44 230.03 104.14 231.98 104.11 231.93 99.3 237.54 95.95 237.54 101.61 233.32 104.06 234.31 105.7 237.54 103.81 237.54 105.31 230.71 109.27 231.71 110.93 237.54 107.51 237.54 109.71 233.32 112.18 234.31 113.82 237.54 111.92 237.54 117.45 239.47 117.45 239.47 112.08 242.59 113.77 243.53 112.09 239.47 109.89 239.47 107.56 245.59 110.89 246.54 109.24 239.47 105.38 239.47 103.97 242.59 105.66 243.53 103.99 239.47 101.76 239.47 95.77 245.54 98.66 245.95 103.47 247.88 103.32 247.56 99.63 248.92 100.28 249.58 108.06 251.51 107.9 250.94 101.24 252.94 102.21 253.35 107.02 255.28 106.84 254.98 103.16 260.02 105.57 260.86 103.84"/>
  <rect class="cls-3" x="216.1" y="69.44" width="44.81" height="48.02"/>
  <path d="M120.61,241.02c.22,1.27,.21,1.28,1.19,2.14,.18,.16,.35,.09,.55-.36-.66-.45-.73-1.51-1.74-1.78Zm95.12-53.42c-1.55-1.52-2.22-3.38-3.94-4.33-.65,.77-.19,1.34,.22,1.93,.36,.53,1.15,.91,.61,1.86-1.09-.08-1.18-1.62-2.28-1.66-.41,.5,.12,.85,.19,1.27,.07,.42-.21,.58-.63,.46-.31-.08-.62-.16-.91-.23-.19,.38-.3,.74-.54,.98-.43,.43-.66,.94-.69,1.54-.01,.11-.07,.2-.16,.27-.28,.14-.77-.25-.89,.23-.21,.89-1.08,.78-1.61,1.17-.1,.06-.18,.15-.24,.26-.05,.19-.15,.47-.05,.58,.12,.15,.45,.3,.6,.24,2.4-.95,4.79-1.91,7.17-2.92,.95-.41,1.85-.97,3.13-1.65h0Zm-43.1,24.93c-.14,.55-.52,.8-1.01,.51-.58-.35-1.09-.84-1.66-1.21-.09-.05-.37,.19-.61,.33l1.39,2.01-.61,.8c.92,2,2.79,3.39,3.56,5.49,.03,.07-.08,.18-.12,.27-.09,.05-.24,.17-.28,.14-1.84-1.46-2.75-3.71-4.42-5.3-.64,.34-.33,.77-.26,1.17,.16,.88,1.29,1.39,.97,2.51-.97,.19-1.01-.75-1.45-1.15-.51-.46-.8-1.16-1.52-1.42-.63,.17-1.14,.54-.71,1.21,.63,.97,1.4,1.83,2.1,2.72-.23,.4-1.05,.26-.92,.87,.25,1.14-.3,.79-.83,.5-.26-.14-.48-.17-.58,.06-.07,.19-.13,.49-.03,.62,.97,1.3,2.03,2.55,2.7,3.96-.43,.78-.77,.41-1.1,.1-.33-.3-.52-.79-1.09-.75q-.55-1.66-2.51-3.18,.58,1.81,2.57,3.12l-1.06,1.72c-.6,.31-.97,0-1.32-.31-.77-.69-1.53-1.43-2.32-2.1-.07-.06-.39,.17-.62,.28,1.88,3.06,4.35,5.73,5.97,8.95-.17,.39-.43,.48-.76,.21-1.2-1-1.82-2.43-2.71-3.67-.95-1.32-1.9-2.63-3.29-3.65q-.26,1.74,2.94,5.26c-.36,.55-.75,.35-1.11,.03-.82-.74-1.63-1.5-2.49-2.29-.42,1.03,.39,1.41,.69,1.98,.52,.97,.19,1.17-.75,.96-.1,.88-.81,.83-1.54,.92,.89,1.93,2.61,3.28,3.49,5.03-.35,.6-.7,.52-.93,.25-1.36-1.62-2.7-3.25-4.03-4.89-.21-.26-.33-.61-.56-1.06q-.6,1.16,1.86,4.61c-.19,.36-.5,.47-.8,.19-.86-.77-1.68-1.6-2.59-2.48q.05,1.19,2.45,3.77c-.27,.36-.58,.29-.88,.07-.7-.53-1.16-1.4-2.09-1.59-.51,.63-.06,.97,.21,1.3,.44,.54,.95,1.03,1.42,1.54-.49,.88,.11,1.49,.53,2.15,.03,.04-.05,.19-.11,.25-.06,.05-.22,.16-.29,.13-.32-.12-.62-.28-.89-.48-1.16-.97-2.32-1.97-3.38-2.88-1.04,.21-.19,2.02-2.17,1.13l1.29,1.91c-.16,.1-.39,.34-.48,.29-.61-.32-1.19-.69-1.81-1.07-1.54,1.12-3.19,1.9-5.11,2.2-1.02,.16-1.96,.75-2.96,1.09-.5,.17-.89-.1-1.15-.53-.12-.43,.15-.71,.46-.85,1.07-.47,2.14-1,3.27-1.3,1.66-.43,3-1.35,4.21-2.48,1.45-1.37,2.91-2.73,4.12-4.34,2.25-3.01,4.52-5.99,6.41-9.26,1.94-3.34,4.06-6.58,5.73-10.04-.18-.84-.8-1.03-1.5-1.11-.49,.56,.55,1.02,.08,1.57-.19,.08-.47,.31-.59,.25-1.12-.58-2.25-.39-3.37-.11-.89,.23-1.74,.59-2.36,.81-1.33,0-1.75-1.16-2.64-1.34-.44,.26-.51,.56-.24,.87,.69,.79,1.72,1.24,2.21,2.26-.14,.71-.58,1.07-1.2,.58-.82-.65-1.52-1.45-2.21-2.12-1.09,.04-2.13,.31-3.1,.81-.79-.17-1.25-1.06-2.06-1.03-.19,.16-.36,.25-.35,.32,.08,.9,.98,1.28,1.32,2.01,.07,.16-.06,.42-.14,.62-.04,.09-.19,.23-.25,.21-.34-.09-.66-.27-1-.34-.68-.13-1.39-.27-1.95,.33,.02,1.14,.97,1.49,1.71,2.04,.29,.22,.39,.55,.03,.87-.13,.13-.28,.2-.46,.2s-.34-.05-.47-.18c-.27-.22-.53-.46-.77-.71-.85-.81-1.68-1.64-2.55-2.42-.13-.15-.3-.22-.5-.2-.2,.01-.36,.1-.47,.27,.08,1,1.3,1.24,1.53,2.18-.05,.85-.98,.91-1.38,1.46-.41,.76,.98,1.44,.09,2.22-.66,.06-.97-.53-1.45-.8-.24,.15-.32,.39-.12,.59,.74,.75,1.55,1.44,2.24,2.23,.23,.26-.03,.64-.43,.87-1.04-.11-1.55-1.18-2.4-1.67-.61,.6,.55,1.04,.03,1.6-.87,.73-1.33-.79-2.17-.42-.26,.66,.06,1.49-.72,2.05-.57,.4-.07,1.42-.8,1.84-.68,0-1-.53-1.38-.97-.39-.43-.74-.81-1.67-.93,.77,1.93,2,3.13,3.19,4.26-.05,.31-.03,.57-.14,.72s-.38,.25-.57,.37q-3.03-3.62-4.11-3.67c-.22,.85,1.56,1.29,.48,2.32-.79-.19-1.16-1.58-2.32-.91,.15,1.24,1.36,1.72,1.61,2.77q-1.42,1.57-4.03-.08c-.28,.76,.5,.89,.74,1.29,.3,.49,.19,.85-.29,1.27l-1.85-1.52c-.42,.19-.35,.54-.14,.79,.77,.88,1.61,1.7,2.34,2.61,.19,.23-.03,.63-.55,.83-.37-.32-.81-.7-1.25-1.08-.34-.3-.65-.66-1.18-.55q-.12,.97,.77,2.38c.01,.74-.94,.65-1.06,1.16,.43,2.27,2.98,3.07,3.35,5.29,.02,.09-.1,.19-.23,.41-1.58-.44-2.13-1.93-3.05-3.03-.97-1.16-1.63-2.59-3.05-3.55-.99,.3-1.59,1.23-2.48,1.74-1.12-.15-1.54-1.43-2.52-1.67-.44,.22-.68,.52-.49,.85,.53,.95,1.51,1.44,2.28,2.14,.55,.5,.22,1.04-.39,1.38-.91,.1-1.16-1.16-2.11-1-.01-.75-.49-1.25-.99-1.71-.27-.25-.66-.35-.83,.06-.11,.31-.08,.62,.09,.9,.2,.29,.47,.49,.8,.62s.67,.14,1.01,.05c-.19,1.5-1.51,1.97-2.59,2.75-.56-.58-1.11-1.18-1.68-1.75-.23-.24-.97-.15-.94,.08,.03,.24,.03,.47,.15,.6,.65,.66,1.33,1.29,1.96,1.88q-.49,2.08,.69,3.48c.17,.16,.32,.34,.46,.53,.1,.22,.17,.45,.22,.69l-.77,.67c-.55-.68-1.06-1.32-1.6-1.93-.23-.25-.6-.65-.81-.6-1.55,.39-2.52-.66-3.45-1.83-.65,1.24,.12,1.44,.41,1.84,.21,.28,.48,.51,.7,.77,.22,.26,.14,.92-.11,.93-.21,.03-.41,.02-.6-.05-.73-.36-1.05-1.28-1.96-1.42-.33,.1-.39,.26-.15,.5l4.87,4.96c.03,.66-.26,.95-.77,1.08-1.49-.69-1.72-2.81-3.53-3.13-.54,.39,.41,1.2-.84,1.54-.84,.05-1.13-1.44-2.2-1.53-.39,.13-.69,.48-.53,.77,.21,.37,.69,.58,1.04,.89,.49,.44,.77,1.14,.19,1.49-1.04,.63,.35,1.76-.5,2.12-.77,.33-1.43,.72-1.89,1.38-.57,.81-1,1.72-1.97,2.28l1.67,2.37c-.08,.21-.18,.4-.32,.58-.48,.45-.87,.09-1.16-.25-.65-.8-1.03-1.84-1.97-2.41-.87,.32,.02,1.35-.89,1.79l-1.3-.9c-.51,.5-.02,.83,.19,1.2,.19,.34,.24,.67-.09,.91-.19,.12-.39,.14-.6,.06-1.45-.93-2.64-.72-3.64,.71-.17,.25-.51,.39-.79,.58-.08-.28-.26-.55-.18-.69,.28-.52,.61-1.01,.99-1.46,3.29-3.83,5.89-8.19,9.29-11.95,1.04-1.12,1.96-2.34,2.75-3.65,2.55-4.37,6.3-7.53,10.33-10.43,2.4-1.69,4.88-3.25,7.45-4.67,4.48-2.51,8.24-5.83,11.29-9.96,1.53-2.07,3.11-4.11,4.72-6.13,2.71-3.39,6.1-5.79,10.29-7.1,3.38-1.03,6.82-1.73,10.34-2.09,2.45-.27,4.9-.56,7.36-.79,.54-.03,1.03-.18,1.49-.46,.46-.28,.82-.65,1.09-1.11,1-1.59,2.12-3.1,3.07-4.72,2-3.4,5.13-5.41,8.57-7,1.08-.53,2.22-.76,3.43-.7,1.05,.08,2.11,.03,3.17,.04,3.33,.03,6.51-.85,9.72-1.54,.86-.19,1.44-.75,2.06-1.3,3.23-2.92,6.16-6.11,8.81-9.57,2.23-2.87,4.51-5.7,6.82-8.52,1.64-2,3.09-4.13,4.36-6.38,1.85-3.26,3.99-6.35,5.9-9.58,4.18-7.07,8.33-14.16,11.62-21.71,1.02-2.36,2.32-4.61,3.59-6.86,1.22-2.17,2.96-3.93,4.84-5.55,1.77-1.56,3.67-2.93,5.7-4.13,3.04-1.76,6.06-3.57,9.06-5.43,.99-.61,1.86-1.43,2.79-2.14,1.96-1.49,3.93-2.96,5.89-4.45,1.99-1.48,3.76-3.19,5.3-5.14,.93-1.2,1.99-2.32,3.03-3.43,1.87-2,4-3.62,6.59-4.61,.87-.36,1.71-.77,2.53-1.24,2.47-1.36,5.08-2.37,7.82-3.04,3.98-.95,7.94-2.1,11.67-3.9,3.1-1.5,6.54-1.88,9.84-2.7,1.72-.44,3.53-.04,5.23,.45,1.4,.4,2.5,1.39,3.34,2.5,2.97,3.93,6.16,7.7,8.63,11.99,2.22,3.86,4.23,7.84,6.65,11.6,1.32,2.06,2.27,4.34,3.59,6.43,5.21,8.23,9.89,16.76,14.04,25.57,1.74,3.74,4.1,7.11,5.91,10.79,1.03,2.1,2.2,4.13,3.24,6.22,.85,1.71,2.13,3.11,3.38,4.49,2.2,2.42,4.43,4.79,7.26,6.6,4.26,2.72,8.37,5.67,12.01,9.22,.16,.17,.33,.33,.51,.48,5.99,4.69,9.83,10.95,13.09,17.65,.57,1.16,1.18,2.3,1.79,3.44,1.55,2.9,2.88,5.9,4,8.98,2.26,6.28,4.7,12.5,7.06,18.75,.27,.65,.5,1.32,.69,1.99,1.07,4.22,3.44,7.66,6.39,10.76,.32,.34,.72,.65,.92,1.05,1.45,2.81,2.87,5.65,4.28,8.48,.09,.22,.11,.45,.06,.68-.05,.23-.16,.41-.35,.55-.21,.1-.42,.09-.63-.02-.71-.49-.95-1.31-1.33-2.03-1.38-2.59-2.77-5.17-4.58-7.48-.65-.83-1.34-1.63-2-2.46-1.85-2.32-3.29-4.83-3.98-7.75-.16-.67-.51-1.3-.76-1.95-.7-1.87-1.46-3.71-2.06-5.6-1.55-4.91-3.49-9.68-5.39-14.46-1.43-3.6-3.04-7.12-4.78-10.54-2.34-4.58-4.94-9.06-8.04-13.21-1.62-2.17-3.83-3.8-5.77-5.67-3.83-3.69-8.36-6.45-12.59-9.6-3.2-2.38-6.42-4.76-8.74-8.1-.53-.77-1.08-1.54-1.53-2.36-2.64-4.7-5.29-9.4-7.85-14.14-1.45-2.68-2.74-5.44-4.1-8.17-2.2-4.41-4.62-8.69-7.11-12.94-2.97-5.05-5.86-10.14-8.75-15.24-2.31-4.08-4.56-8.2-6.84-12.3-.16-.32-.34-.63-.54-.92-2.17-2.92-4.34-5.84-6.55-8.72-.49-.63-1.02-1.3-1.85-1.54-.09,.07-.18,.15-.27,.23,.44,.67,.9,1.32,1.35,1.96-.32,.44-.62,.39-.92,.1-1.26-1.19-2.3-2.63-3.87-3.48-.09,.14-.22,.28-.19,.32,.47,.8,.97,1.59,1.58,2.58l-.77,.51c.02,.21-.03,.47,.07,.62,.44,.69,.91,1.35,1.38,2.02,.3,.4,.38,.85,.24,1.33l.07-.07c-1.02-.26-1.37-1.23-1.95-1.92-.58-.69-1.04-1.57-1.91-2.1l-.77,1.06c-1.28-.84-1.59-2.6-3.05-3.25-.07-.03-.19,.06-.35,.11-.26,.66,.36,1,.62,1.43,.41,.67,.25,1.35,.23,2.04-.02,.48-.67,.72-1.08,.46-1.24-.77-1.97-1.98-2.79-3.11-.17-.15-.37-.19-.58-.12-.15,.08-.33,.44-.27,.54,.52,.91,1.07,1.8,1.63,2.69,.37,.58,1.02,.98,1,1.77-1.08-.28-1.21-.4-2.48-1.86-.68-.79-1.12-1.8-2.08-2.32-.42,.06-.83,.36-.68,.66,.53,1.03,1.2,2,1.81,2.99,.23,.37,.65,.67,.41,1.39-1.71-.76-2.15-2.82-3.77-3.68-.36,1.18,1.04,1.6,.97,2.5-.06,.77-.49,1.51-.42,2.35,.07,.91,.58,1.53,1.16,2.1,1.96,1.9,3.36,4.22,4.86,6.46,.28,.42,.69,.93,.39,1.53-.11,.05-.24,.08-.36,.09-.11-.01-.21-.06-.28-.15-1.28-1.68-2.38-3.53-3.85-5.02-2.61-2.69-4.61-5.91-7.26-8.57-.06-.06-.23-.04-.34-.01-.15,.07-.29,.15-.43,.25,.58,2.05,2.92,3.22,3.22,5.82-2.03-.85-2.29-3.08-3.93-3.85-.59,.62,.41,1.06,.03,1.68l-1.27,.25c-.29,.14-.21,.31-.15,.58,.27,1.36,1.09,2.49,1.79,3.84-1.13,.1-1.29-.68-1.69-1.14-.46-.53-.85-1.12-1.3-1.66-.45-.54-.92-1.07-1.41-1.58-.49-.51-.88-1.08-1.6-1.28-.7,.99,.34,1.5,.56,2.21,.22,.71,1.3,1.09,.97,2.1-.59,.15-.7-.42-1.01-.67-.46-.36-.86-.8-1.36-1.1-.35-.22-.69-.65-1.36-.34l.97,1.9c-.27,.29-.43,.23-.65,.02-.76-.73-1.52-1.47-2.31-2.16-.09-.08-.39,.09-.8,.19,1.36,1.93,2.68,3.82,4.01,5.69,.27,.39,.64,.7,.58,1.23-.04,.12-.11,.2-.21,.26-.07,.05-.24,.07-.27,.03-.71-.91-1.41-1.84-2.13-2.75-.44-.56-1.24-.62-1.57-.28-.68,.69-1.49,.73-2.3,.99-1.19,.37-1.47-1.06-2.42-.93-.08,.09-.19,.16-.23,.26-.04,.12-.03,.23,.03,.34,1.14,1.9,2.29,3.79,3.4,5.63-.27,.59-.6,.37-.8,.12-.67-.81-1.33-1.65-1.94-2.51-.66-.98-1.47-1.83-2.42-2.54-.5,.43-.17,.82,.08,1.18,.53,.77,1.09,1.52,1.63,2.27-.93,1.09-1.06-.51-2.16,.11l-.44,.5c-1.01-.94-2.02-1.87-3.29-3.05,.43,1.33,.46,1.39,1.47,2.41,.66,.67,1.38,1.29,1.97,2.02,.57,.74,1.09,1.52,1.56,2.34,.46,.76,1.27,1.44,.54,2.66-1.68-2.49-2.97-5.18-5.57-6.79-.7,.39-.51,1-.22,1.44,.5,.79,1.16,1.48,1.7,2.24,.74,1.05,1.43,2.14,2.13,3.19l-1.12,1.58c.6,2.49,1.97,4.7,3.13,6.97,2.49,4.92,5.12,9.76,7.12,14.91,.59,1.53,1.34,3,2.05,4.48,1.29,2.65,2.18,5.43,3.06,8.22,1.52,4.81,2.46,9.76,3.45,14.69,.2,1.16,.25,2.33,.16,3.51-.13,2.49,.31,4.9,.8,7.32,.68,3.33,2.57,6.03,4.75,8.51,1.39,1.58,2.97,3.01,4.55,4.42,1.31,1.17,2.73,2.23,4.1,3.33,2.75,2.2,5.49,4.42,8.26,6.6,1.85,1.45,3.74,2.84,5.32,4.61,1.27,1.43,2.31,2.92,2.94,4.74,.7,1.99,1.39,3.98,1.99,6.01,1.22,4.16,2.65,8.25,5.04,11.94,1.47,2.26,2.6,4.74,4.1,6.97,3.07,4.58,6.28,9.06,9.44,13.58,.33,.47,.68,.93,1.18,1.62-1.57-.04-2.63-.39-3.42-1.53-2.58-3.78-5.29-7.47-7.79-11.3-2.3-3.53-4.5-7.14-6.54-10.83-1.06-1.97-1.88-4.03-2.44-6.19-.8-2.94-1.83-5.81-2.74-8.72-.91-2.91-2.71-5.17-5.05-7.05-2.1-1.7-4.24-3.34-6.37-5.02-2.4-1.88-4.83-3.73-7.18-5.67-3.28-2.69-6.44-5.5-8.82-9.05-.97-1.44-2.69-1.81-3.85-2.95-.1-.09-.47-.05-.6,.06-.16,.17-.22,.37-.17,.59,.23,.41,.48,.81,.76,1.18,.19,.29,.39,.58,.11,.97-.73,.31-.88-.95-1.63-.66-.11,.07-.17,.17-.18,.29-.01,.13,.03,.23,.13,.32,1,1.16,2.04,2.27,2.98,3.48,.47,.61,1.16,1.19,.91,2.29-.95-.09-1.12-1.01-1.63-1.51-.56-.6-1.17-1.15-1.81-1.67-.65-.48-1.39-.84-2.13-1.28q.04,1.38,1.95,4.07c-.16,.53-.44,.27-.71,.11-.86-.51-1.26-1.61-2.31-1.93-.39,.8,.27,1.15,.45,1.65,.14,.41,.64,.7,.41,1.27-1.28-.29-1.73-1.75-3.07-2.14-.77,1.89,2.12,2.45,1.55,4.2-1.4-.26-1.75-2.12-3.51-2.2,.88,1.61,2.39,2.57,3.17,3.94-.22,.45-.39,.51-.58,.34-1.19-1.08-2.82-1.47-4.23-3.4,.39,2.57,2.18,3.35,2.58,4.95-.77,.64-2.01,.48-2.63,1.56,1.55,2.12,3.11,4.29,4.67,6.46,.03,.05-.07,.19-.16,.42-1.58-.52-2.02-2.06-2.93-3.15-.97-1.16-1.97-2.29-3.11-3.61-.12,2.01,.33,3.59,1.38,5-.75,.27-1.44,.32-1.65,1.2l-2.05-1.78c-.41,.26-.43,.58-.24,.89,.39,.66,1.18,1.16,.63,2.16-.13,.24,.32,.8,.52,1.2,.4,.8,1.24,1.35,1.34,2.33-.87,.27-1.01-.81-1.7-.77-.41,.29-.11,.62-.08,.94,.02,.19,.05,.48-.06,.6-.29,.3-.61,.19-.88-.09-.52-.57-.66-1.51-1.64-1.6-.1,.09-.28,.21-.26,.25,.26,.64,.55,1.28,.86,1.99-.31,.22-.7,.41-.97,.72-.27,.31-.19,.83-.7,1.1-.73,.39-.34,1.78-1.55,1.81-.53,.77-1.1,1.51-1.58,2.31-.55,.91-1.48,1-2.37,1.23-.5-.54-.3-1.11,.01-1.6,1.6-2.51,2.32-5.34,3.25-8.11,.79-2.33,1.67-4.63,2.52-6.95,.19-.55,.53-1.07,.63-1.64,.55-3.24,2.57-5.76,4.18-8.46,.58-.98,1.57-1.74,2.42-2.54,.68-.65,1.42-1.23,2.14-1.83,4.28-3.52,6-8.26,6.51-13.57,.03-.35,.03-.7,.1-1.05,.95-4.97-.12-9.76-1.23-14.57-1.11-4.82-3.03-9.34-5.04-13.85-1.71-3.86-3.16-7.83-5.11-11.59-.65-1.25-1.26-2.51-1.89-3.77-1.8-3.56-3.62-7.11-5.38-10.69-.58-1.19-1.32-2.19-2.4-2.94-.7,.34-.34,.99-.49,1.5-.14,.51-.52,.19-.85,.1-.49,.98,.54,1.4,.82,2.09,.31,.76,.7,1.48,1.06,2.22,.31,.63,.63,1.26,.95,1.89,.37,.73,.76,1.46,1.11,2.21,.33,.7,.99,1.35,.39,2.44-.83-.7-1.29-1.6-1.82-2.42-.58-.88-1-1.86-1.49-2.8-.43-.83-.84-1.67-1.28-2.5-.5-.93-.95-1.9-1.55-2.76-.56-.8-.68-1.98-1.79-2.36-.44,.5-.3,.95-.1,1.38,.35,.75,.73,1.48,1.07,2.22,.24,.52,0,.9-.47,1.14-.52,.26-.92-.06-1.16-.45-.25-.39-.32-.89-.58-1.27-.23-.26-.51-.44-.85-.52-.24-.08-.42,.74-.35,1.21,.09,.66,.9,1.13,.48,1.96-1.11,.04-1.04-1.48-2.1-1.54-.11,.09-.34,.19-.4,.35-.13,.35-.15,.31-1.22,1.33-.4,.39-.67,.92-1.32,1.16,.77,1.44,1.79,2.7,2.25,4.27-.77,.62-1.18-.46-1.85-.4-.86,.08-1.15-.67-1.59-1.2-.44-.53-.88-1.05-1.35-1.62-.48,.75-.49,1.01-.16,2.28-.77,.27-1.01-.74-1.81-.7-.07,1.65,1.35,2.84,1.73,4.89-1.72-1.43-2.05-3.37-3.65-4.15-.76,.8,.8,1.42,.07,2.33-.81-.29-1.12-1.43-2.11-1.48-.29,.66-.86,1.05-1.51,1.49l3.73,5.57q-.98,.14-2.04-1.28c-.48-.64-1.03-1.24-1.59-1.9l-.97,1.18c-1.04,.02-1.06-1.16-1.78-1.52-.99,.46-.76,1.78-1.62,2.31-.31-.17-.63-.32-.96-.45-.33-.11-.77,.27-.66,.52,.29,.63,.61,1.24,.92,1.86q-.93,.85-1.36,2.24c-.64-.55-1.25-1.1-1.89-1.6-.21-.12-.42-.14-.64-.05-.16,.09-.27,.22-.31,.4-.05,.18-.02,.34,.08,.5,.32,.62,.67,1.23,1.02,1.87-.54,.03,.11,.34-.28,.32-.88-.04-.94-1.4-1.94-1.08-.08,.09-.23,.21-.21,.27,.33,1.11,.49,2.24,.47,3.4,0,.42,.35,.86,.61,1.24,.85,1.26,1.74,2.5,2.59,3.77,.19,.28,.26,.66-.19,.93-.95-.29-1.16-1.29-1.7-2-.56-.75-1.14-1.48-1.74-2.2-.57-.67-.92-1.6-2.1-1.94-.09,1.33,.67,2.1,1.16,2.95,.46,.8,1.05,1.52,1.64,2.36l-1.58,.93c-1.27-.43-1.56-2.03-2.88-2.41q-.15,1.32,3.87,7.59c-.27,.66-.62,.47-.98,.08-.45-.49-.57-1.27-1.35-1.46l-.58,.94c-.94-.16-1.02-1.13-1.53-1.68-.54-.59-.96-1.29-1.43-1.95-.43,.23-.87,.51-.6,1.07,.5,1.03,1.07,2.02,1.59,2.98-.16,.19-.23,.28-.3,.37l-2.05-1.84c-.33,.27-.53,.61-.35,.92,.35,.6,.99,1.09,1.16,1.74,.23,.84-.42,.47-.82,.37-.05-.01-.15,.16-.33,.37,2.37,3.49,5.44,6.61,7.04,10.97-1.23-.18-1.39-1.04-1.81-1.61-.49-.66-.93-1.35-1.39-2.03-.39-.58-.77-1.18-1.18-1.75-.49-.66-1.01-1.3-1.5-1.92-1.15,.37,.26,1.26-.57,1.76-1.26-.67-1.64-2.32-2.98-3.37-.08,1.72,1.16,2.51,1.51,3.69q-1.07-.39-2.45-1.82c-.49,.37-.39,.81-.09,1.21,1.31,1.78,2.64,3.55,3.9,5.23-.19,.65-.57,.59-.8,.34-.63-.69-1.22-1.42-1.79-2.16-.58-.74-1.02-1.53-1.92-1.91-.54,.52-.11,1.14-.22,1.69-.14,.7,.14,1.3,.5,1.87v1.42c-1.21,.04-1.47-1.13-2.39-1.57-.28,1.1,.81,1.63,.97,2.54,.09,.71-.97,.58-1,1.23q1.51,2.34,1.53,3.75c-1.68-1.39-2.3-3.62-4.21-4.76q-.19,1.13,.93,3.54c-.19,.77-.66,.17-1.06,.25-.61,.7,1.06,1.38,.12,2.12-1.07-.29-.94-1.86-2.15-2.01-.07,.12-.19,.25-.17,.31,1.12,2.83,3.38,4.98,4.69,7.64-.17,.21-.3,.39-.31,.39-2.3-1.68-3.13-4.56-5.23-6.45q-.62,.88,.44,3.67c-1.01,.41-1.07-1.11-1.98-.94-.58,.46,.08,.74,.18,1.1,.13,.47,1.59,1.47-.44,1.16-.05,0-.28,.42-.22,.53,.34,.61,.76,1.17,1.09,1.78,.07,.13-.11,.4-.18,.61-1.12-.18-1.33-1.88-2.87-1.65,.18,1.28,1.54,1.79,1.73,2.94q-.91-.04-2.69-1.45c-.1,.05-.28,.12-.28,.16,.19,1.28,1.45,2.06,1.55,3.51-1.29,.35-1.43-1.25-2.43-1.4-.04,.05-.28,.21-.27,.34,.07,.75,.88,1.4,.2,2.29-.14,.19,.19,.86,.45,1.2,.69,.93,1.45,1.81,2.24,2.79,1.74-.53,3.31-1.31,4.84-2.14,2.15-1.16,4.33-1.47,6.78-1.06,4.04,.67,8.11,1.4,12.24,1.11,2.56-.18,4.26,.92,5.53,3,3.19,5.23,5.92,10.66,7.32,16.68,.11,.45,.36,.87,.46,1.33,.77,3.89,3.13,6.77,6,9.3,3.96,3.5,7.97,6.95,11.58,10.81,3.46,3.67,6.74,7.52,10.07,11.31,.54,.63,1,1.3,1.39,2.03,1.62,2.99,3.91,5.56,5.27,8.62,.9-.03,1.44-.5,2.03-.87,1.09-.69,2.17-1.4,3.29-2.03,5.06-2.81,3.27-2.15,9-2.45,2.72-.17,5.41,0,8.07,.55,.91,.19,1.87,.18,2.81,.26l9.84,.77c.47,.04,.94,.07,1.41,.13,3.15,.44,5.82,1.74,7.84,4.27,1.83,2.3,3.81,4.48,5.54,6.84,1.55,2.1,3.54,3.06,6.06,2.87,2.81-.22,5.65-.44,8.38-1.05,3.68-.84,7.41-1.21,11.19-1.13,3.87,.1,7.77-.24,11.62,.55,.69,.14,1.42,.17,2.07,.42,3.06,1.2,6.16,2.34,9.13,3.73,3.29,1.54,6.47,3.34,9.7,5.02,3.76,1.93,7.48,3.93,11.39,5.57,3.31,1.37,6.22,3.33,8.72,5.89,1.9,1.96,4.07,3.53,6.36,5,1.88,1.2,3.69,2.51,5.55,3.74,.72,.47,1.26,1.04,1.5,1.88-.32,.53-.76,.32-1.19,.19-1.84-.54-3.38-1.65-4.89-2.75-3.23-2.35-6.6-4.5-9.44-7.37-1.69-1.67-3.63-2.99-5.81-3.94-5.25-2.37-10.35-5.03-15.4-7.81-.41-.23-.85-.42-1.31-.09-.25,.84,1.13,1.12,.64,2.19l-2.18-1.63-.72,1.09c-2.15-1.42-3.45-3.77-5.65-5.12l-.75,.79c-.69-.26-1.15-1.29-2.15-.58-.43,.31-.88,0-1.28-.26-.47-.31-.97-.6-1.4-.88-.59,.39-.25,.92-.41,1.33l-.02,.02c-1.43-.22-1.87-1.64-2.88-2.38-.53-.39-.88-1.11-1.72-.89-.09,.09-.25,.21-.24,.23,.55,.93,1.12,1.85,1.81,2.99-1.44-.1-2.05-1.59-3.32-1.35-.64-.73-1.24-1.53-2.46-2.18q1.2,1.7,2.54,2.09l-.25,1.24c-.64,.25-.98-.12-1.3-.41-.97-.86-1.89-1.76-2.84-2.63-.29-.27-.72-.29-.93,.02-.13,.19,.03,.59,.07,.92-.07,.04-.21,.19-.26,.15-.71-.39-1.39-.82-2.12-1.17-.33-.13-.67-.16-1.02-.09-.48,.08-.33,.49-.35,.83-.06,.94-1.05,1.09-1.69,1.66l2.19,2.34c-.19,.22-.34,.39-.35,.39-1.55-1.2-3.1-2.41-4.62-3.61-1.83,.23-3.62,1.09-5.44-.19,.35,1.03,1.05,1.6,1.59,2.29,.49,.63,1.39,.91,1.55,1.82q-1.24-.22-2.43-1.29c-.77-.7-1.55-1.42-2.34-2.15-.8,.66,.47,1.48-.35,2.08-.7,.51,.77,1.22-.13,1.85-1.27-.61-2.04-1.86-3.13-2.71-.69-.54-1.3-.34-1.8,.28-.15,.42,.12,.68,.36,.9,1.62,1.54,2.72,3.54,4.51,4.93,3.34,2.6,6.76,5.08,10.27,7.45,3.51,2.36,7,4.77,10.41,7.27,2.47,1.82,4.61,4.04,6.51,6.43,2.2,2.77,4.68,5.27,7.11,7.83,.88,.92,1.77,1.83,2.26,2.87-.32,.6-.62,.5-.97,.44-1.27-.25-1.98-1.23-2.76-2.09-2.94-3.21-5.91-6.39-8.73-9.69-2.47-2.9-5.46-5.18-8.59-7.24-4.91-3.23-9.68-6.64-14.47-10.05-.96-.68-1.85-1.45-2.67-2.3-4.02-4.28-8.31-8.3-11.79-13.09-1.33-1.79-2.75-3.51-4.26-5.15-.7-.77-1.19-2.22-2.76-1.5-.62-.53-1.23-1.07-1.86-1.6-.28-.24-.64-.41-.93-.09-.28,.32,.11,.58,.22,.87,.03,.14,.05,.28,.06,.42-.75,.39-.83-.47-1.22-.69-.39-.24-.77-.5-1.14-.79-.36,.6-.65,1.1-1.01,1.68,.88,1.19,1.8,2.39,2.67,3.62,.08,.12-.03,.47-.16,.6-.2,.09-.38,.07-.56-.05-1.39-1.58-2.73-3.2-4.14-4.77-.73-.77-1.49-1.49-2.29-2.18-.14-.13-.42-.1-.81-.18,.13,.89,.87,1.34,1.21,1.99,.37,.71,1.09,1.24,1.12,2.12-.37,.56-.58,.05-.75-.14-1.08-1.24-2.13-2.51-3.21-3.74-.31-.35-.72-.64-1.21-.27-.39,.3-.09,.61,.04,.91,.15,.33,.21,.64-.11,.94l-1.42-1.01c-.77,1.16-1.37,1.35-2.13,.64-.84-.79-1.45-1.88-2.83-2.05l-.97,1.72c.53,1.32,1.73,1.98,2.5,3,.22,.29,.34,.6,.07,.92-.32,.37-.69,.19-.89-.07-1.38-1.92-3.18-3.44-4.86-5.08-.28-.24-.57-.45-.88-.65-.06,1.69,1.74,2.23,1.91,3.61-.23,.37-.56,.4-.83,.14-.58-.58-1.1-1.22-1.68-1.8s-1.19-.45-1.69,.39c-.16,.26-.08,.66-.49,.79l-1.37-.85-.73,.91-3.32-3.09c-.58,.45-.19,.82,.05,1.16,.76,.99,1.72,1.85,2.49,3.49-2.24-1.07-3.06-3.06-4.81-3.92-.47,.25-1.14,.36-.56,1.17,.82,1.14,1.59,2.32,2.41,3.53-.1,.89-.21,1.8-.32,2.84-2.3-.88-3.39-3.27-5.68-4.12q1.36,2.25,1.41,3.67c-.66,.3-.97-.33-1.58-.6-.47,.93,.68,1.35,.67,2.06-.19,.03-.5,.16-.6,.07-.95-.81-1.73-1.83-2.95-2.51,.31,1.58,.34,1.54,1.81,3.24,.72,.83,1.85,1.4,2.13,2.97-1.7-.73-2.54-2.02-3.68-2.92-.08,.02-.25,.05-.25,.08-.02,.42-.01,.83-.01,1.26-1.07,.31-.94-.8-1.41-1.19-.54-.45-.99-1-1.71-1.16-.44,.17-.36,.46-.21,.79,.13,.3,.41,.6,0,.98l-1.51-.86c-.31,.5-.18,.79,.05,1.08,1.16,1.47,2.32,2.95,3.49,4.43,.39,.5,.58,1.01-.02,1.6-1.64-.8-1.94-2.91-3.57-3.71-.48,.41,.03,1.2-.71,1.63-1.23-.66-1.82-2.01-2.82-2.95-.29-.27-.63-.12-.89,.17,.02,1.19,1.59,1.78,1.23,3.13-2.35-.12-2.32-.19-4.21-1.74-.39-.31-.82-.42-1.24,.31,1.21,2.11,3.49,3.57,4.5,5.92-.34,.33-.68,.4-.97,.09-.86-.97-1.69-1.95-2.53-2.93-.44-.51-.77-1.13-1.47-1.37-.26,1.41,1.12,2.19,1.3,3.43-.26,.32-.56,.45-.86,.09-.76-.88-1.47-1.79-2.52-2.32-.77,.77,.89,1.49-.05,2.24-1.24-.77-1.84-2.33-3.36-2.88-.61,1.06,.72,1.41,.65,2.3-1.13,.48-1.56-1.42-2.85-.79,.29,.87,.9,1.53,1.58,2.1,2.8,2.38,4.99,5.3,7.32,8.09,.45,.53,.89,1.13,.18,1.93-2.87-2.43-4.52-6.02-7.71-8.13-1.03,.75,.9,1.35-.21,2.22-1-.11-1.13-1.43-1.91-1.98-.84-.59-1.69-1.16-2.82-1.93,.19,1.47,1.29,1.97,1.61,2.97-.19,.87-1.57,.77-1.63,2.06l-3.46-3.07c-.55,.54,.03,.81,.3,1.11,1.39,1.54,2.99,2.94,4.15,4.62-.09,.14-.19,.28-.31,.41-2.42-1.22-3.69-3.86-6.14-5-.62,.34-.5,.77-.19,1.16,.74,.91,1.52,1.79,2.28,2.68,.28,.34,.71,.63,.54,1.19-.67,.35-.95-.39-1.45-.52l-.83,.73-3.39-2.88c-.39,.36-.39,.68-.12,.99,.54,.62,1.09,1.22,1.64,1.85-.41,.99-.06,2.38-1.64,2.67,.03,1.37,1.44,2.05,1.67,3.33-.48,.62-.73-.07-.99-.25-.95-.68-1.2-2.05-2.43-2.47-.69,.43-.09,.76,.13,1.03,.36,.45,.72,.85,.44,1.67-1.62-1.13-2.65-2.56-3.93-3.73-.49-.44-.81-.15-1.12,.32,.03,.89,.86,1.26,1.36,1.86,.5,.59,1.03,1.2,1.66,1.92q-1.36-.14-4.29-2.38c-.07,.88,.65,1.15,1,1.63,.32,.44,.78,.81,.76,1.49-1.49,.17-1.94-1.63-3.41-1.7-.55,1.1,.72,1.52,.95,2.34-.95,.61-1.43-.39-2.15-.62-.8,.46,.25,.92-.14,1.48-.57,.39-1.15-.58-1.84-.26-1.77,1.87-3.53,3.75-5.31,5.6-.15,.15-.42,.17-.63,.25-.35-.15-.58-.45-.5-.79,.1-.48,.29-.92,.57-1.31,1.96-2.49,3.89-4.99,6.25-7.14,2.16-1.98,4.25-4.04,6.25-6.2,3.05-3.31,6.55-6.06,10.5-8.25,4.11-2.28,8.21-4.58,12.51-6.52,4.51-2.01,8.89-4.28,13.15-6.79,1.43-.85,2.62-1.93,3.83-3.2-1.49-1.54-2.52-3.25-3.55-4.94-3.21-5.24-7.3-9.77-11.43-14.27-4.45-4.85-9.29-9.32-14.21-13.68-1.43-1.26-2.59-2.72-3.71-4.23-.78-1.05-1.32-2.21-1.61-3.49-.84-3.67-2.11-7.2-3.49-10.69-1.2-3.1-2.76-6.01-4.68-8.72-.81-.49-1.22,.5-1.82,.03-.45-.36-.92-.68-1.43-1.05-.71,1.3,.89,1.9,.59,2.94-.14,.26-.29,.23-.57,.07-1.16-.66-1.94-1.69-2.79-2.67-.11-.15-.26-.24-.45-.26-.19-.02-.35,.03-.49,.15-.07,1.16,1.32,1.75,1.25,3.02-1.06-.03-1.21-1.01-1.76-1.51-.51-.47-.9-1.07-1.74-.99-.95,.09-1.28-.97-2.06-1.21-.58,.33-1.41,.16-1.81,1.05,.89,1.41,1.81,2.87,2.73,4.35,.03,.05-.09,.19-.23,.46-.98-.47-1.37-1.48-1.97-2.23-.73-.92-1.38-1.93-2.64-2.19-1.38-.27-1.96-1.58-2.78-2.32-.89,.18-1,1.41-1.97,.92-.28,.57-.39,1.39-1.34,.75-.24,1.26,1.38,1.72,.97,2.91-.88,.24-.97-.83-1.61-.93-.49,.21-.14,1.4-1.03,.98-.76-.36-.66,.5-1.11,.53-1.15-.42-1.58-1.82-2.8-2.4-.53,1.19,.39,1.67,.72,2.33,.37,.73,.9,1.38,1.31,2.09,.39,.68,1.15,1.2,.98,2.29-1.61-.34-1.51-2.17-2.62-2.88-1.07-.68-1.36-2.12-2.7-2.87-.47,1.98,1.53,2.67,1.79,4.18-1.91,.33-2.48-1.61-3.71-2.4-.63,1.01,.08,1.46,.46,1.99,.35,.48,.68,.95,.46,1.61-.75,.48-1.05-.74-1.74-.47-.12,.05-.19,.15-.22,.28-.03,.13,0,.24,.1,.34,1.37,2.05,2.74,4.1,4.11,6.14,.58,.87,1.3,1.68,1.4,2.79,0,.24-.1,.43-.28,.58-.21,.08-.4,.05-.58-.09-1.1-1.64-2.15-3.31-3.25-4.95-.52-.77-1.12-1.5-1.68-2.24-2.4,.36-2.61-2.3-4.22-3.02-.37,.18-.44,.43-.22,.77,.55,.9,1.1,1.8,1.61,2.63-.22,.91-.71,.25-1.04,.33-.34,.08-.63,.19-.9,.29q-2.48-2.54-3.47-2.27c.11,1.26,1.49,1.79,1.74,2.98-.05,.76-.74,.1-.95,.4-.17,.29-.3,.6-.41,.92-.69,.13-.92-.57-1.44-.77-.09,.14-.29,.32-.26,.43,.16,.61,.9,1.15,.13,1.97-1.16-1.33-1.86-2.99-3.12-4.12-1.2,.65,.72,2.09-1,2.48-1.23,.39-2.14-.87-3.57-1.16,.7,2.41,2.49,3.86,3.47,5.77-.35,.62-.77,.42-1.06,.05-1.13-1.5-2.21-3.04-3.33-4.53-.27-.36-.64-.73-1.17-.31-.19,.83,1.02,1.2,.7,2.09q-.26,.18-2.36-1.61c-.89,.37-1.74,1.2-2.7,0-.33,1.29,.8,1.62,.8,2.44-.19,.07-.48,.26-.59,.19-.5-.3-.9-.79-1.42-.99-.35-.13-.86,.23-1.26,.17-.82-.13-.91-1.31-1.83-1.37-.7,.41,.52,1.02-.15,1.44-.77-.02-.86-1.13-1.69-1.05-.61,.56,.69,1.24-.12,1.79-1.31-.31-1.58-1.95-2.91-2.32q.11,1.88,4.45,7.64c-.34,.5-.82,.52-1.15,.12-.73-.9-1.38-1.88-2.1-2.88l-1.72,.43-1.5-2.1c-.59,.95,.15,1.26,.38,1.73,.19,.4,.58,.75,.33,1.28-.68,.18-.8-.66-1.45-.77-.63,.39-.74,1.18-1.13,1.8,.33,1.58,1.77,2.45,2.45,3.8,.06,.12-.12,.39-.23,.54-.11,.07-.22,.07-.33,.02-.41-.41-.81-.82-1.19-1.26-.77-.87-1.21-2.02-2.3-2.65-1.06,1.16,.59,2.29,.03,3.42-.47,.34-.85-.16-1.29-.12,.1-1.05-.58-1.71-1.23-2.37-.23-.24-.51-.42-.72,.1,.53,.86,1.07,1.72,2.07,2.17h-.06Z"/>
  <path d="M193.8,247.79c-1.25-.07-1.37-1.56-2.5-1.83l-.62,1.01c-1.02-.16-1.34-1.21-2.18-1.67-.49,1.14,1.11,1.67,.83,2.85-.84,.09-1.07-1.16-1.91-.99-.61,.34-.25,.77-.12,1.16,.14,.39,.02,.85-.26,.89-1.42,.16-.39,.95-.43,1.46,0,.1-.03,.21-.05,.31-.4,.53-1.2-.07-1.59,.58-.06,1.24,1.49,1.66,1.63,2.79-.1,.1-.22,.19-.34,.26-.64-.5-1.27-1.02-1.92-1.54-.66,.26-.41,.68-.12,1.01,.77,.88,1.62,1.7,2.38,2.59,.23,.27,.07,.63-.27,.83-1.14-.53-1.54-2.01-2.88-2.28-.69,.72,.67,1.2,.15,1.93-.95-.08-1.23-1.28-2.17-1.4q0,1.12,1.46,2.9c-1.07,.65-1.44-.93-2.38-.7-.49,1.02,.82,1.44,.94,2.15-.64,.71-1.12-.41-1.64,.14,.09,1.41,1.95,1.93,1.85,3.48-.89,.29-1.07-.74-1.73-.79l-.52,1.43c-1.67-.8-1.93-3-3.75-3.56-.97,1.54,1.02,2.16,1.08,3.35q-1.11-.26-2.98-1.81c-.95,.75,.56,1.35,.12,2.07-.13,.27-.31,.29-.56,.08-.53-.45-1.07-.9-1.6-1.35-.92,.11-.34,.93-.84,1.46-.6,.37-1.2-1.06-1.99-.33-.24,.65,.53,.92,.57,1.54-1.36-.19-2.28,.47-3.02,1.54l1.91,2.41c-.23,.51-.48,.51-.77,.24-.93-.83-1.77-1.78-3.05-2.47-.12,1.33,1.25,1.51,1.26,2.59-.12,.21-.46,.25-.74,.02-.71-.6-1.39-1.25-2.01-1.82-.68-.01-.87,.31-1,.82-.16,.62-.68,.32-1.09,.25-.62,1.14,1.07,1.43,.93,2.36q-.3,.32-3.07-1.74c-.42,.31-.64,.72-.29,1.16,.95,1.19,1.96,2.33,2.95,3.49,.23,.27,.41,.55,.07,1.09-1.67-.84-2.62-2.51-4.07-3.6-.54,.3-.35,.71-.17,1.13,.58,1.29,1.53,2.32,2.46,3.19-.14,.58-.31,.79-.74,.56-.43-.23-.84-.42-1.33-.25,.08-1.34-.97-1.87-2.01-3.07q.62,1.82,2.09,2.99c-.18,.5-.55,.87-1.03,.56-.77-.51-1.44-1.16-2.14-1.76-.41,.3-.27,.64-.05,.9,1.19,1.45,2.41,2.88,3.6,4.33,.28,.34,.52,.72,.76,1.07-.58,.57-1.03,.24-1.33-.06-.84-.82-1.61-1.7-2.4-2.57-.61-.67-1.14-1.43-2.13-1.68q0,1.2,2.13,3.7c-.25,.61-.66,.49-1.02,.15-.6-.55-1.15-1.16-1.74-1.72-.19-.15-.38-.28-.59-.39-.55,.36-.36,.8-.02,1.11,.52,.44,1.07,.85,1.63,1.24-.92,1.35-1.65-.22-2.5,.49,.99,1.11,1.99,2.21,2.96,3.33,.39,.46,.58,1-.03,1.51-1.51-.8-2.01-2.59-3.41-3.5q-.1,.87,.56,1.91c.11,.68-.66,.47-.85,.85-.15,.3-.32,.59-.53,.98l-2.61-1.97q.28,1.18,1.24,2.41c-1.25,.31-1.74-1.16-2.82-.97-.39,.64-.41,.64,.06,1.68-.19,.09-.4,.28-.56,.25-.45-.13-.88-.29-1.31-.47-.76,.81-1.43,1.62-2.21,2.32-.58,.51-1.27,.61-1.82-.14,.02-.22-.06-.52,.06-.66,5.24-6.48,10.5-12.94,15.76-19.4,3.02-3.72,6.66-6.57,11.25-8.16,1.88-.66,3.65-1.6,5.5-2.34,3.16-1.28,5.56-3.54,7.63-6.11,3.42-4.22,6.02-8.96,8.07-13.98,1.46-3.58,2.75-7.23,4.09-10.86,.2-.54,.32-1.12,.48-1.68,1.05-3.6,3.23-6.48,5.86-9.06,.62-.56,1.34-.94,2.14-1.16,3.1-.92,5.76-2.62,8.38-4.41,.28-.21,.58-.39,.91-.52,.18-.06,.45,.05,.64,.16,.35,.19,.39,.56,.28,.91-.09,.22-.21,.41-.35,.6-.54,.82-1.79,1.18-1.5,2.56,.17,.82-.94,1.49-.51,2.47l-1.43-.87c-.46,1.22,1.11,1.9,1.02,3.14-1.57-.36-1.69-2.02-2.88-2.51-.95,.5,.66,1.24-.29,1.81l-1.87-1.16c-.27,1.07,1.29,1.49,.58,2.53-1.02-.11-1.24-1.33-2.15-1.58-.17,.06-.29,.17-.36,.32-.08,.16-.08,.32-.02,.49,.37,.85,.82,1.66,1.24,2.48-.12,.33-.27,.37-.51,.22-.79-.48-1.25-1.41-2.4-1.71-.03,1.3,1.7,1.66,1.43,3.03-1.18,.21-1.25-1.51-2.34-1.41-.44,.54,.06,.87,.33,1.17,1.16,1.32,2.38,2.59,3.53,3.92,.24,.28,.07,.63-.39,.88l-4.62-4.68c-.47,.39-.4,.73-.17,1,.67,.82,1.37,1.61,2.05,2.42,.21,.26,.42,.55,.22,.95-.05,.05-.16,.22-.19,.2-1.48-.58-1.98-2.32-3.61-2.96-.58,1.74,1.18,2.36,1.62,3.6l-.77,.63c-.05,1.22,1.59,1.6,1.54,2.96-1.55,.2-1.87-1.63-3.1-1.78-.8,1.43,1.48,1.81,.87,3.19l-1.58-1.07c-.48,1.09,.55,1.53,.77,2.29l-1.03,.94c.95,1.54,1.91,3.11,2.86,4.66-1.11,.85-1.2-.26-1.65-.62-.6-.04-.43,.69-.97,.88l-2.64-2.64c-.97,.95,.18,1.54,.19,2.36l-1.03,.85c.95,1.33,1.88,2.66,2.84,3.99,.28,.39,.51,.77,.39,1.28l.03-.05Z"/>
  <path d="M296.26,275.85c-1.11,.02-1.36-1.19-2.3-.98-.04,1.03,1.32,1.22,1.27,2.23-.21,.05-.49,.22-.61,.14-.94-.61-1.68-1.54-2.98-2.06,.03,1.52,1.69,1.81,1.68,3.05-.63,.49-1.04-.13-1.5-.35-.53-.25-.99-.63-1.53-.98-.14,.35-.21,.71-.41,.95-.4,.5-1.42,.28-1.48,1.22-1.26,.58-2.52,1.18-3.79,1.72-.14,.06-.46-.11-.58-.26-.12-.15-.19-.5-.11-.61,1.24-1.4,2.5-2.79,3.77-4.15,3.06-3.25,6.04-6.58,8.52-10.3,1.49-2.23,3.42-3.82,5.95-4.73,1.21-.44,2.36-1.04,3.58-1.46,1.1-.4,2.24-.69,3.4-.87,2.44-.34,4.88-.7,7.24-1.45,.19-.07,.39-.08,.58,0,.19,.07,.34,.2,.44,.38,.17,.98-.97,1.35-1.31,2.15,.08,.97,1.42,1.72,.46,2.86-1.12-.39-1.22-1.74-2.21-2.22-.19-.09-.47-.16-.63-.07-.17,.15-.25,.33-.23,.56,.07,.53,.72,.98,.25,1.61-1.18-.05-1.33-1.95-2.92-1.51,1.29,2.48,4.33,3.48,5.13,6.23,.02,.06-.14,.17-.24,.28-1.47-1.33-2.77-2.86-4.48-3.84-1.11,.47,.39,1.28-.36,1.75-.46,.08,.12,.33-.26,.05-1.39-1.07-2.22-2.75-3.81-3.62-.65,.34-.26,.7-.04,1.06,.43,.69,1.29,1.06,1.45,1.93,.03,.16-.19,.37-.29,.56-1.13-.53-1.55-1.99-2.96-2.25-.18,1,.72,1.37,1.15,1.99,.39,.55,.83,1.06,1.57,1.97-2.4-.71-3.18-2.9-5.15-3.56-.54,1.29,1.09,1.65,.97,2.64-.83,.25-1.11-.76-1.99-.79-.11,.97-.22,1.94-.33,2.9-1.08,.23-1.3-1-2.13-1.05-.3,.14-.34,.3-.16,.53,.44,.55,.87,1.1,1.28,1.62,.03,.74-1.07,.5-.96,1.22,.07,.45,.4,.97,.26,1.31-.28,.68,.07,1.91-1.36,1.62,.39,1.42,1.88,1.86,2.11,3.21-1.05,.1-1.47-.71-2.07-1.18-.64-.51-1.25-1.06-1.83-1.65-.56-.56-.97-1.28-1.81-1.49-.08,.1-.21,.19-.21,.28,.06,1.37,1.78,1.78,1.92,3.42h.02Z"/>
  <path d="M334.08,149.94c.86,.3,1.2,1.1,1.61,1.79,4.84,8.31,10.51,16.1,15.53,24.3,3.05,4.98,7.39,8.4,12.4,11.16,1.64,.9,3.22,1.93,4.79,2.95,2.01,1.31,3.6,3,4.77,5.09,1.5,2.57,2.48,5.32,2.94,8.25,.74,4.63,1.8,9.18,3.2,13.66,1.36,4.39,3.58,8.42,6.14,12.21,1.64,2.42,3.58,4.63,5.42,6.92,1.92,2.38,3.49,5,4.95,7.66,1.74,3.18,3.21,6.51,4.8,9.78-.74,.51-.98,.5-1.28-.05-1.4-2.57-2.84-5.13-4.17-7.74-1.5-2.93-3.28-5.68-5.35-8.25-3.15-3.93-6.16-7.97-8.63-12.39-2.43-4.35-3.83-9.05-4.91-13.86-.77-3.42-1.4-6.87-2.09-10.31-.77-3.85-2.79-6.89-5.92-9.26-2.07-1.57-4.39-2.71-6.59-4.06-1.9-1.16-3.77-2.33-5.52-3.75-1.81-1.52-3.37-3.26-4.67-5.24-3.09-4.56-6.15-9.15-9.1-13.79-2.83-4.45-5.5-9-8.25-13.51-.29-.51-.62-1.01-.06-1.55h-.01Z"/>
  <path d="M240.93,174.19c-.59-.28-.65-.73-.45-1.15,.5-1.06,1.05-2.09,1.65-3.09,.76-1.21,1.2-2.53,1.65-3.86,1.76-5.2,3.53-10.4,5.77-15.42,.66-1.48,1.07-3.09,2.13-4.39,.59-.73,1.14-1.45,1.94-2.01,3.43-2.44,6.84-4.91,10.27-7.36,.2-.1,.41-.18,.64-.23,.48,.25,.19,.57,.05,.84-.61,1.16-1.44,2.14-2.47,2.94-1.64,1.31-3.25,2.7-5.07,3.72-3.27,1.83-5.35,4.59-6.43,8.02-.84,2.69-2.04,5.22-3.05,7.83-1.61,4.13-3.13,8.3-5.29,12.2-.38,.7-.63,1.52-1.35,1.96h0Z"/>
  <path d="M399.74,246.75c-.24-.25-.57-.47-.71-.77-2.46-5.08-5.77-9.65-8.6-14.52-2.54-4.35-5.14-8.67-7.64-13.04-.5-.86-1.19-1.71-1.19-2.8,.28-.07,.56-.23,.67-.15,.29,.21,.53,.46,.7,.77,2.36,4.32,5.39,8.22,7.55,12.69,1.42,2.93,3.49,5.55,5.25,8.32,1.83,2.87,3.16,5.99,4.22,9.2,0,.06-.15,.18-.25,.3h0Z"/>
  <path d="M263.1,225.92c.33-.45,.65-.65,.99-.49,.43,.19,.81,.45,1.14,.79,2.73,3.05,5.51,6.04,7.8,9.46,1.74,2.62,3.79,5.05,5.7,7.57,.42,.56,.96,1.08,1.22,1.71,.37,.86,1.72,1.42,.92,2.67-1.22-.04-1.29-1.18-1.82-1.88-1.49-1.95-3.04-3.86-4.51-5.83-1.48-1.97-2.93-3.94-4.33-5.95-1.36-1.93-3.06-3.54-4.64-5.25-.86-.93-1.82-1.77-2.46-2.8h0Z"/>
  <path d="M344.1,138.9c-1.06-1.26-2.13-2.42-2.91-3.83-.97-1.74-1.92-3.5-3.03-5.15-2.47-3.7-5.04-7.34-7.55-11.01-.41-.57-.78-1.16-1.1-1.78-.14-.29,.02-.65,.36-.85,2.56,1.87,10.33,13.93,13.75,20.22,.39,.69,.95,1.38,.48,2.4h0Z"/>
  <path d="M321.71,220.24c.42-.67,.86-.69,1.21-.27,.83,.99,1.64,1.99,2.38,3.04,3.18,4.51,6.27,9.08,8.81,13.99,.43,.84,.8,1.7,1.1,2.59,.08,.23-.19,.58-.4,1.17-4.05-7.3-8.58-13.96-13.11-20.52h0Z"/>
  <path d="M346.05,177.93c-1.34-1.97-2.75-3.83-3.94-5.83-1.8-3.02-3.59-6.04-5.69-8.87-.15-.18-.24-.39-.28-.62,0-.23,.08-.43,.26-.58,.21-.09,.42-.07,.61,.05,1.83,2.14,3.63,4.29,4.98,6.78,1.35,2.48,3.15,4.66,4.17,7.31,.21,.53,.54,1.06-.1,1.76h-.02Z"/>
  <path d="M193.77,247.82c.54-.07,.88,.28,1.14,.65,.76,1.03,1.48,2.08,2.21,3.13-.24,.15-.51,.41-.58,.36-.99-.68-2.3-2.72-2.75-4.17l-.03,.03Z"/>
  <path d="M228.27,162.13c-.36-.58-.64-1.16-.5-1.87q2.14,2.02,2.54,3.28c-.14,.19-.33,.21-.55,0-.5-.47-.99-.94-1.49-1.41h0Z"/>
  <path d="M317.46,96.29c.22,.05,.51,.04,.64,.17,.76,.87,1.49,1.76,2.52,3.01-2.17-1.25-2.21-1.3-3.09-3.25l-.07,.07Z"/>
  <path d="M377.6,263.3c1.06,.01,1.59,.7,2,1.54,.03,.05-.08,.19-.15,.26-.07,.06-.19,.16-.25,.14-.8-.42-1.65-.81-1.63-1.92l.02-.02Z"/>
  <rect class="cls-3" x="89.21" y="86.17" width="340.37" height="215.53"/>
  <polygon points="181.89 180.25 178.36 178.59 180.44 177.16 179.64 176.04 176.94 177.91 175.42 177.2 179.51 174.36 178.7 173.26 174 176.52 173.07 176.08 175.14 174.64 174.35 173.54 171.65 175.4 167.37 173.37 171.33 171.02 174.43 172.65 175.09 171.45 172.71 170.2 173.63 169.66 178.62 172.29 179.28 171.09 175.01 168.85 176.37 168.03 179.46 169.66 180.11 168.47 177.75 167.22 181.18 165.19 180.47 164.02 177.12 166.01 177.02 163.52 175.64 163.57 175.77 166.82 174.32 167.67 174.14 162.77 172.77 162.82 172.97 168.47 172.09 169 172 166.5 170.62 166.55 170.73 169.79 166.61 172.23 166.61 166.94 169.51 165.36 168.83 164.18 166.61 165.39 166.61 164.37 171.65 161.64 170.98 160.45 166.61 162.83 166.61 161.18 169.51 159.6 168.83 158.42 166.61 159.62 166.61 155.79 165.23 155.79 165.23 159.72 162.92 158.38 162.21 159.55 165.23 161.29 165.23 162.86 161.06 160.42 160.35 161.6 165.23 164.44 165.23 165.49 162.92 164.15 162.21 165.31 165.23 167.07 165.23 172.36 160.78 170.25 160.61 167 159.23 167.08 159.37 169.57 158.43 169.12 158.11 163.48 156.73 163.56 157.02 168.45 155.5 167.74 155.32 164.5 153.94 164.57 154.08 167.06 150.55 165.39 149.95 166.62 153.57 168.32 151.33 169.78 152.1 170.92 155.01 169.01 156.44 169.69 152.4 172.32 153.17 173.45 157.88 170.38 158.86 170.83 156.62 172.29 157.37 173.42 160.3 171.52 164.48 173.51 160.4 175.9 157.54 174.3 156.85 175.47 159.05 176.72 158.17 177.25 153.17 174.43 152.48 175.59 156.81 178.04 155.37 178.9 152.51 177.28 151.82 178.46 154.01 179.69 150.67 181.67 151.38 182.85 154.82 180.81 154.84 183.44 156.22 183.43 156.2 179.99 157.55 179.19 157.59 183.94 158.97 183.93 158.93 178.37 159.85 177.83 159.86 180.47 161.26 180.44 161.22 177.02 165.23 174.64 165.23 178.66 162.21 180.4 162.92 181.57 165.23 180.23 165.23 181.29 160.35 184.11 161.06 185.29 165.23 182.86 165.23 184.43 162.21 186.18 162.92 187.35 165.23 185.99 165.23 189.93 166.61 189.93 166.61 186.11 168.83 187.31 169.51 186.12 166.61 184.55 166.61 182.9 170.98 185.27 171.65 184.09 166.61 181.34 166.61 180.34 168.83 181.54 169.51 180.35 166.61 178.77 166.61 174.51 170.94 176.57 171.23 179.99 172.61 179.88 172.38 177.26 173.35 177.72 173.83 183.25 175.2 183.14 174.8 178.4 176.23 179.09 176.52 182.51 177.9 182.38 177.68 179.77 181.28 181.48 181.89 180.25"/>
  <rect class="cls-3" x="149.91" y="155.79" width="32.01" height="34.14"/>
  <polygon points="246.38 263.26 241.44 260.91 244.36 258.9 243.23 257.33 239.45 259.96 237.33 258.95 243.05 254.97 241.92 253.42 235.34 258 234.04 257.39 236.93 255.36 235.82 253.81 232.05 256.43 226.06 253.58 231.6 250.26 235.93 252.56 236.86 250.88 233.53 249.12 234.82 248.36 241.8 252.06 242.73 250.37 236.75 247.21 238.65 246.07 242.98 248.36 243.89 246.69 240.58 244.92 245.39 242.07 244.39 240.43 239.71 243.23 239.56 239.72 237.63 239.79 237.81 244.36 235.79 245.56 235.54 238.67 233.61 238.74 233.89 246.69 232.66 247.43 232.53 243.92 230.6 243.99 230.76 248.54 224.99 251.97 224.99 244.54 229.05 242.31 228.1 240.66 224.99 242.35 224.99 240.92 232.05 237.08 231.1 235.4 224.99 238.75 224.99 236.43 229.05 234.21 228.1 232.55 224.99 234.24 224.99 228.85 223.05 228.85 223.05 234.38 219.82 232.5 218.83 234.14 223.05 236.59 223.05 238.79 217.22 235.37 216.22 237.03 223.05 241.01 223.05 242.49 219.82 240.6 218.83 242.24 223.05 244.71 223.05 252.15 216.83 249.19 216.58 244.62 214.65 244.73 214.85 248.24 213.54 247.6 213.09 239.67 211.16 239.78 211.55 246.65 209.43 245.66 209.18 241.1 207.24 241.2 207.44 244.69 202.51 242.35 201.66 244.08 206.73 246.47 203.6 248.52 204.67 250.12 208.75 247.44 210.75 248.4 205.1 252.1 206.17 253.68 212.77 249.37 214.13 250 211 252.06 212.06 253.65 216.15 250.97 222 253.77 216.29 257.14 212.29 254.88 211.32 256.52 214.4 258.28 213.16 259.02 206.17 255.06 205.21 256.7 211.27 260.14 209.25 261.35 205.24 259.08 204.28 260.73 207.35 262.46 202.67 265.25 203.67 266.9 208.48 264.03 208.51 267.73 210.45 267.71 210.41 262.88 212.31 261.76 212.36 268.44 214.29 268.42 214.24 260.61 215.53 259.85 215.54 263.55 217.49 263.52 217.44 258.71 223.05 255.36 223.05 261.02 218.83 263.47 219.82 265.11 223.05 263.22 223.05 264.72 216.22 268.68 217.22 270.34 223.05 266.92 223.05 269.12 218.83 271.59 219.82 273.23 223.05 271.33 223.05 276.86 224.99 276.86 224.99 271.49 228.1 273.18 229.05 271.5 224.99 269.3 224.99 266.97 231.1 270.31 232.05 268.65 224.99 264.79 224.99 263.38 228.1 265.07 229.05 263.4 224.99 261.18 224.99 255.18 231.05 258.07 231.46 262.88 233.39 262.73 233.07 259.04 234.43 259.69 235.09 267.47 237.02 267.31 236.45 260.65 238.45 261.62 238.86 266.43 240.8 266.25 240.49 262.57 245.54 264.98 246.38 263.26"/>
  <rect class="cls-3" x="201.61" y="228.85" width="44.81" height="48.02"/>
</svg>